<svg xmlns="http://www.w3.org/2000/svg" version="1.1" xmlns:xlink="http://www.w3.org/1999/xlink" xmlns:svgjs="http://svgjs.dev/svgjs" width="1000" height="270" viewBox="0 0 1000 270"><g transform="matrix(1,0,0,1,-0.6060606060606233,-0.3690192041890725)"><svg viewBox="0 0 396 107" data-background-color="#b10dc9" preserveAspectRatio="xMidYMid meet" height="270" width="1000" xmlns="http://www.w3.org/2000/svg" xmlns:xlink="http://www.w3.org/1999/xlink"><g id="tight-bounds" transform="matrix(1,0,0,1,0.2400000000000091,0.14624094388233289)"><svg viewBox="0 0 395.52 106.70751720662395" height="106.70751720662395" width="395.52"><g><svg viewBox="0 0 397.4975999999999 107.24105479265705" height="106.70751720662395" width="395.52"><g><rect width="397.4975999999999" height="2.6603089479947153" x="0" y="68.11693554804125" fill="#001f3f" opacity="1" stroke-width="0" stroke="transparent" fill-opacity="1" class="rect-o-0" data-fill-palette-color="primary" rx="1%" id="o-0" data-palette-color="#001f3f"></rect></g><g transform="matrix(1,0,0,1,0.9887999999999693,77.74140404576036)"><svg viewBox="0 0 395.52 29.499650746896698" height="29.499650746896698" width="395.52"><g id="textblocktransform"><svg viewBox="0 0 395.52 29.499650746896698" height="29.499650746896698" width="395.52" id="textblock"><g><svg viewBox="0 0 395.52 29.499650746896698" height="29.499650746896698" width="395.52"><g transform="matrix(1,0,0,1,0,0)"><svg width="395.52" viewBox="4.389999866485596 -31.25 464.1399841308594 34.619998931884766" height="29.499650746896698" data-palette-color="#001f3f"><g class="wordmark-text-0" data-fill-palette-color="primary" id="text-0"><path d="M4.39 0L4.39-8.79 9.4-8.79Q12.65-5.86 16.33-4.5 20.02-3.15 24.05-3.15L24.05-3.15Q25.81-3.15 27.27-3.49 28.74-3.83 29.81-4.43 30.88-5.03 31.48-5.83 32.08-6.64 32.08-7.57L32.08-7.57Q32.08-8.64 31.4-9.55 30.71-10.45 29.21-11.18 27.71-11.91 25.35-12.45 23-12.99 19.68-13.33L19.68-13.33Q15.82-13.72 13.11-14.61 10.4-15.5 8.68-16.77 6.96-18.04 6.16-19.6 5.37-21.17 5.37-22.9L5.37-22.9Q5.37-24.51 6.3-26.01 7.23-27.51 9.06-28.67 10.89-29.83 13.62-30.54 16.36-31.25 19.97-31.25L19.97-31.25Q22.07-31.25 23.82-30.92 25.56-30.59 27.04-30.03 28.52-29.47 29.76-28.7 31.01-27.93 32.1-27.05L32.1-27.05 32.1-30.4 37.6-30.4 37.6-21.61 32.1-21.61Q31.37-22.83 30.2-23.88 29.03-24.93 27.5-25.7 25.98-26.46 24.17-26.9 22.36-27.34 20.39-27.34L20.39-27.34Q18.31-27.34 16.74-26.97 15.16-26.59 14.1-25.99 13.04-25.39 12.5-24.66 11.96-23.93 11.96-23.22L11.96-23.22Q11.96-22.31 12.44-21.5 12.92-20.68 14.12-19.98 15.33-19.29 17.41-18.74 19.48-18.19 22.68-17.8L22.68-17.8Q27.17-17.24 30.2-16.38 33.23-15.53 35.06-14.32 36.89-13.11 37.67-11.51 38.45-9.91 38.45-7.91L38.45-7.91Q38.45-6.4 37.63-4.86 36.82-3.32 35.14-2.08 33.47-0.83 30.91-0.05 28.34 0.73 24.88 0.73L24.88 0.73Q22.71 0.73 20.72 0.45 18.73 0.17 16.88-0.38 15.04-0.93 13.31-1.73 11.57-2.54 9.89-3.61L9.89-3.61 9.89 0 4.39 0ZM33.57-18.97L33.57-19.9 39.36-19.9 39.36-29.15 40.38-29.15 40.38-18.97 33.57-18.97ZM13.99-23.36L13.99-23.36Q13.99-23.88 14.51-24.29 15.04-24.71 15.97-25 16.89-25.29 18.15-25.46 19.41-25.63 20.87-25.63L20.87-25.63Q23.1-25.63 24.99-24.94 26.88-24.24 28.13-23.14L28.13-23.14Q27.44-23.44 26.59-23.72 25.73-24 24.79-24.23 23.85-24.46 22.86-24.6 21.88-24.73 20.92-24.73L20.92-24.73Q18.26-24.73 16.54-24.3 14.82-23.88 13.99-23.36ZM6.08-17.04L6.08-17.04Q6.91-15.97 8.02-15.11 9.13-14.26 10.71-13.6 12.28-12.94 14.39-12.45 16.5-11.96 19.34-11.65L19.34-11.65Q22.09-11.33 24.06-10.99 26.03-10.64 27.32-10.24 28.61-9.84 29.31-9.33 30-8.81 30.25-8.13L30.25-8.13Q29.54-8.54 28.75-8.87 27.95-9.2 26.71-9.51 25.46-9.81 23.58-10.11 21.7-10.4 18.85-10.74L18.85-10.74Q15.84-11.11 13.54-11.74 11.23-12.38 9.63-13.2 8.03-14.01 7.14-15 6.25-15.99 6.08-17.04ZM5.86 1.71L11.65 1.71 11.65-0.71Q14.58 0.83 17.77 1.64 20.97 2.44 24.85 2.44L24.85 2.44Q27.81 2.44 30.57 1.81 33.33 1.17 35.47-0.1 37.62-1.37 38.92-3.3 40.21-5.22 40.21-7.81L40.21-7.81Q40.21-9.38 39.88-10.66 39.55-11.94 38.57-13.23L38.57-13.23Q39.16-12.82 39.64-12.22 40.11-11.62 40.45-10.9 40.8-10.18 40.99-9.39 41.19-8.59 41.19-7.81L41.19-7.81Q41.19-5.13 39.9-3.05 38.62-0.98 36.4 0.45 34.18 1.88 31.2 2.62 28.22 3.37 24.83 3.37L24.83 3.37Q21.02 3.37 18.03 2.71 15.04 2.05 12.67 0.88L12.67 0.88 12.67 2.64 5.86 2.64 5.86 1.71ZM53.34-12.52L53.34-26.49 46.77-26.49 46.77-30.4 65.45-30.4 65.45-26.49 58.84-26.49 58.84-12.52Q58.84-10.28 59.65-8.56 60.47-6.84 61.9-5.66 63.33-4.49 65.26-3.89 67.19-3.3 69.41-3.3L69.41-3.3Q71.63-3.3 73.31-3.69 75-4.08 76.21-4.74 77.41-5.4 78.16-6.27 78.9-7.15 79.27-8.13L79.27-8.13Q79.49-8.89 79.62-9.53 79.76-10.18 79.84-10.95 79.93-11.72 79.95-12.74 79.98-13.77 79.98-15.31L79.98-15.31 79.98-26.49 73.39-26.49 73.39-30.4 92.06-30.4 92.06-26.49 85.47-26.49 85.47-14.89Q85.47-12.67 85.37-11.15 85.28-9.62 85.08-8.81L85.08-8.81Q84.47-6.49 83.03-4.72 81.59-2.95 79.53-1.77 77.46-0.59 74.88 0.01 72.29 0.61 69.41 0.61L69.41 0.61Q65.57 0.61 62.58-0.33 59.59-1.27 57.54-2.99 55.49-4.71 54.42-7.13 53.34-9.55 53.34-12.52L53.34-12.52ZM58.15-0.66L58.15-0.66Q60.81 0.73 63.54 1.53 66.26 2.32 69.41 2.32L69.41 2.32Q71.8 2.32 74.06 1.89 76.32 1.46 78.29 0.63 80.27-0.2 81.92-1.45 83.57-2.71 84.74-4.36 85.91-6.01 86.57-8.06 87.23-10.11 87.23-12.55L87.23-12.55 87.23-24.78 94.06-24.78 94.06-29.15 95.04-29.15 95.04-23.85 88.21-23.85 88.21-12.52Q88.21-8.81 86.75-5.9 85.3-2.98 82.76-0.94 80.22 1.1 76.79 2.17 73.36 3.25 69.41 3.25L69.41 3.25Q67.67 3.25 66.03 2.98 64.38 2.71 62.91 2.21 61.45 1.71 60.23 0.99 59.01 0.27 58.15-0.66ZM60.59-12.52L60.59-24.78 67.21-24.78 67.21-29.15 68.19-29.15 68.19-23.85 61.57-23.85 61.57-12.52Q61.57-11.08 61.98-9.81 62.4-8.54 63.29-7.54 64.18-6.54 65.57-5.86 66.97-5.18 68.94-4.93L68.94-4.93Q66.79-4.93 65.22-5.49 63.64-6.05 62.62-7.06 61.59-8.06 61.09-9.45 60.59-10.84 60.59-12.52L60.59-12.52ZM74.85-23.85L74.85-24.78 78.95-24.78 78.95-23.85 74.85-23.85ZM48.24-23.85L48.24-24.78 52.34-24.78 52.34-23.85 48.24-23.85ZM100.07 0L100.07-3.91 106.44-3.91 106.44-26.49 99.7-26.49 99.7-30.4 118.96-30.4Q121.77-30.4 124.03-30.3 126.29-30.2 128.12-29.86L128.12-29.86Q130.27-29.44 131.78-28.67 133.3-27.91 134.24-26.81 135.18-25.71 135.6-24.32 136.03-22.92 136.03-21.26L136.03-21.26Q136.03-19.9 135.55-18.58 135.08-17.26 134.15-16.1 133.22-14.94 131.82-14.01 130.41-13.09 128.56-12.5L128.56-12.5Q126.58-11.91 124.18-11.76 121.77-11.6 118.96-11.6L118.96-11.6 111.98-11.6 111.98-3.91 120.67-3.91 120.67 0 100.07 0ZM113.69-5.37L113.69-9.89 117.6-9.89Q119.75-9.89 121.31-9.91 122.87-9.94 124.1-10.02 125.34-10.11 126.33-10.27 127.31-10.42 128.32-10.67L128.32-10.67Q130.56-11.21 132.32-12.19 134.08-13.18 135.29-14.56 136.49-15.94 137.13-17.69 137.76-19.43 137.76-21.48L137.76-21.48Q137.76-24 136.8-25.82 135.83-27.64 133.78-29.1L133.78-29.1Q135.03-28.56 135.98-27.72 136.93-26.88 137.57-25.85 138.2-24.83 138.52-23.71 138.84-22.58 138.84-21.48L138.84-21.48Q138.84-19.31 138.13-17.41 137.42-15.5 136.07-13.96 134.71-12.43 132.72-11.32 130.73-10.21 128.14-9.64L128.14-9.64Q127.36-9.47 126.39-9.34 125.41-9.2 124.14-9.12 122.87-9.03 121.26-9 119.65-8.96 117.6-8.96L117.6-8.96 114.67-8.96 114.67-5.37 113.69-5.37ZM111.98-15.5L120.01-15.5Q122.09-15.5 123.63-15.6 125.17-15.7 126.34-16.04L126.34-16.04Q128.44-16.63 129.26-17.9 130.07-19.17 130.07-21.07L130.07-21.07Q130.07-22.53 129.54-23.56 129-24.58 127.8-25.24 126.61-25.9 124.69-26.2 122.77-26.49 120.01-26.49L120.01-26.49 111.98-26.49 111.98-15.5ZM113.69-16.97L113.69-24.78 119.84-24.78Q123.58-24.78 125.54-24.37 127.51-23.95 128.12-22.92L128.12-22.92Q127.63-23.14 126.96-23.32 126.29-23.49 125.31-23.61 124.34-23.73 123.01-23.79 121.67-23.85 119.84-23.85L119.84-23.85 114.67-23.85 114.67-16.97 113.69-16.97ZM101.02-23.85L101.02-24.78 104.9-24.78 104.9-23.85 101.02-23.85ZM101.63 1.71L122.43 1.71 122.43-2.54 123.41-2.54 123.41 2.64 101.63 2.64 101.63 1.71ZM143.55 0L143.55-3.91 149.92-3.91 149.92-26.49 143.18-26.49 143.18-30.4 162.44-30.4Q165.25-30.4 167.51-30.3 169.77-30.2 171.6-29.86L171.6-29.86Q173.75-29.44 175.26-28.67 176.77-27.91 177.71-26.81 178.65-25.71 179.08-24.32 179.51-22.92 179.51-21.26L179.51-21.26Q179.51-19.9 179.03-18.58 178.56-17.26 177.63-16.1 176.7-14.94 175.3-14.01 173.89-13.09 172.04-12.5L172.04-12.5Q170.06-11.91 167.66-11.76 165.25-11.6 162.44-11.6L162.44-11.6 155.46-11.6 155.46-3.91 164.15-3.91 164.15 0 143.55 0ZM157.17-5.37L157.17-9.89 161.08-9.89Q163.22-9.89 164.79-9.91 166.35-9.94 167.58-10.02 168.82-10.11 169.8-10.27 170.79-10.42 171.79-10.67L171.79-10.67Q174.04-11.21 175.8-12.19 177.56-13.18 178.76-14.56 179.97-15.94 180.61-17.69 181.24-19.43 181.24-21.48L181.24-21.48Q181.24-24 180.28-25.82 179.31-27.64 177.26-29.1L177.26-29.1Q178.51-28.56 179.46-27.72 180.41-26.88 181.05-25.85 181.68-24.83 182-23.71 182.32-22.58 182.32-21.48L182.32-21.48Q182.32-19.31 181.61-17.41 180.9-15.5 179.55-13.96 178.19-12.43 176.2-11.32 174.21-10.21 171.62-9.64L171.62-9.64Q170.84-9.47 169.87-9.34 168.89-9.2 167.62-9.12 166.35-9.03 164.74-9 163.13-8.96 161.08-8.96L161.08-8.96 158.15-8.96 158.15-5.37 157.17-5.37ZM155.46-15.5L163.49-15.5Q165.57-15.5 167.11-15.6 168.64-15.7 169.82-16.04L169.82-16.04Q171.92-16.63 172.73-17.9 173.55-19.17 173.55-21.07L173.55-21.07Q173.55-22.53 173.01-23.56 172.48-24.58 171.28-25.24 170.09-25.9 168.17-26.2 166.25-26.49 163.49-26.49L163.49-26.49 155.46-26.49 155.46-15.5ZM157.17-16.97L157.17-24.78 163.32-24.78Q167.06-24.78 169.02-24.37 170.99-23.95 171.6-22.92L171.6-22.92Q171.11-23.14 170.44-23.32 169.77-23.49 168.79-23.61 167.81-23.73 166.48-23.79 165.15-23.85 163.32-23.85L163.32-23.85 158.15-23.85 158.15-16.97 157.17-16.97ZM144.5-23.85L144.5-24.78 148.38-24.78 148.38-23.85 144.5-23.85ZM145.11 1.71L165.91 1.71 165.91-2.54 166.89-2.54 166.89 2.64 145.11 2.64 145.11 1.71ZM187.05 0L187.05-3.91 193.4-3.91 193.4-26.49 186.64-26.49 186.64-30.4 205.78-30.4 205.78-26.49 198.94-26.49 198.94-3.91 215.91-3.91 215.91-10.99 221.4-10.99 221.4 0 187.05 0ZM200.7-5.37L200.7-24.54 207.51-24.54 207.51-29.17 208.49-29.17 208.49-23.61 201.67-23.61 201.67-5.37 200.7-5.37ZM188.1-23.61L188.1-24.54 192.37-24.54 192.37-23.61 188.1-23.61ZM188.52 1.71L223.16 1.71 223.16-9.62 224.14-9.62 224.14 2.64 188.52 2.64 188.52 1.71ZM241.27 0L241.27-3.91 247.86-3.91 247.86-10.03 233.83-26.49 228.09-26.49 228.09-30.4 246.89-30.4 246.89-26.49 240.61-26.49 250.89-14.21 260.97-26.49 254.31-26.49 254.31-30.4 272.67-30.4 272.67-26.49 267.05-26.49 253.36-9.99 253.36-3.91 260.19-3.91 260.19 0 241.27 0ZM255.11-5.37L255.11-9.35 267.98-24.78 274.43-24.78 274.43-29.15 275.4-29.15 275.4-23.85 268.47-23.85 256.14-9.03 256.14-5.37 255.11-5.37ZM251.35-16.55L244.35-24.78 248.64-24.78 248.64-29.15 249.62-29.15 249.62-23.85 246.4-23.85 251.97-17.31 251.35-16.55ZM255.9-23.85L255.9-24.78 258.12-24.78 257.36-23.85 255.9-23.85ZM229.68-23.85L229.68-24.78 233.83-24.78 234.63-23.85 229.68-23.85ZM242.74 1.71L261.95 1.71 261.95-2.54 262.93-2.54 262.93 2.64 242.74 2.64 242.74 1.71ZM278.67-14.04L278.67-18.07 292.73-18.07 292.73-14.04 278.67-14.04ZM280.77-11.4L280.77-12.33 294.49-12.33 294.49-15.72 295.47-15.72 295.47-11.4 280.77-11.4ZM302.55 0L302.55-8.79 307.55-8.79Q310.8-5.86 314.48-4.5 318.17-3.15 322.2-3.15L322.2-3.15Q323.96-3.15 325.42-3.49 326.89-3.83 327.96-4.43 329.04-5.03 329.63-5.83 330.23-6.64 330.23-7.57L330.23-7.57Q330.23-8.64 329.55-9.55 328.86-10.45 327.36-11.18 325.86-11.91 323.51-12.45 321.15-12.99 317.83-13.33L317.83-13.33Q313.97-13.72 311.26-14.61 308.55-15.5 306.83-16.77 305.11-18.04 304.32-19.6 303.52-21.17 303.52-22.9L303.52-22.9Q303.52-24.51 304.45-26.01 305.38-27.51 307.21-28.67 309.04-29.83 311.77-30.54 314.51-31.25 318.12-31.25L318.12-31.25Q320.22-31.25 321.97-30.92 323.71-30.59 325.19-30.03 326.67-29.47 327.91-28.7 329.16-27.93 330.26-27.05L330.26-27.05 330.26-30.4 335.75-30.4 335.75-21.61 330.26-21.61Q329.52-22.83 328.35-23.88 327.18-24.93 325.65-25.7 324.13-26.46 322.32-26.9 320.51-27.34 318.54-27.34L318.54-27.34Q316.46-27.34 314.89-26.97 313.31-26.59 312.25-25.99 311.19-25.39 310.65-24.66 310.11-23.93 310.11-23.22L310.11-23.22Q310.11-22.31 310.59-21.5 311.07-20.68 312.27-19.98 313.48-19.29 315.56-18.74 317.63-18.19 320.83-17.8L320.83-17.8Q325.32-17.24 328.35-16.38 331.38-15.53 333.21-14.32 335.04-13.11 335.82-11.51 336.6-9.91 336.6-7.91L336.6-7.91Q336.6-6.4 335.79-4.86 334.97-3.32 333.3-2.08 331.62-0.83 329.06-0.05 326.5 0.73 323.03 0.73L323.03 0.73Q320.86 0.73 318.87 0.45 316.88 0.17 315.03-0.38 313.19-0.93 311.46-1.73 309.72-2.54 308.04-3.61L308.04-3.61 308.04 0 302.55 0ZM331.72-18.97L331.72-19.9 337.51-19.9 337.51-29.15 338.53-29.15 338.53-18.97 331.72-18.97ZM312.14-23.36L312.14-23.36Q312.14-23.88 312.67-24.29 313.19-24.71 314.12-25 315.05-25.29 316.3-25.46 317.56-25.63 319.03-25.63L319.03-25.63Q321.25-25.63 323.14-24.94 325.03-24.24 326.28-23.14L326.28-23.14Q325.59-23.44 324.74-23.72 323.88-24 322.94-24.23 322-24.46 321.02-24.6 320.03-24.73 319.07-24.73L319.07-24.73Q316.41-24.73 314.69-24.3 312.97-23.88 312.14-23.36ZM304.23-17.04L304.23-17.04Q305.06-15.97 306.17-15.11 307.28-14.26 308.86-13.6 310.43-12.94 312.54-12.45 314.66-11.96 317.49-11.65L317.49-11.65Q320.25-11.33 322.21-10.99 324.18-10.64 325.47-10.24 326.76-9.84 327.46-9.33 328.16-8.81 328.4-8.13L328.4-8.13Q327.69-8.54 326.9-8.87 326.11-9.2 324.86-9.51 323.62-9.81 321.74-10.11 319.86-10.4 317-10.74L317-10.74Q314-11.11 311.69-11.74 309.38-12.38 307.78-13.2 306.18-14.01 305.29-15 304.4-15.99 304.23-17.04ZM304.01 1.71L309.8 1.71 309.8-0.71Q312.73 0.83 315.92 1.64 319.12 2.44 323 2.44L323 2.44Q325.96 2.44 328.72 1.81 331.48 1.17 333.63-0.1 335.77-1.37 337.07-3.3 338.36-5.22 338.36-7.81L338.36-7.81Q338.36-9.38 338.03-10.66 337.7-11.94 336.73-13.23L336.73-13.23Q337.31-12.82 337.79-12.22 338.26-11.62 338.61-10.9 338.95-10.18 339.14-9.39 339.34-8.59 339.34-7.81L339.34-7.81Q339.34-5.13 338.06-3.05 336.77-0.98 334.55 0.45 332.33 1.88 329.35 2.62 326.37 3.37 322.98 3.37L322.98 3.37Q319.17 3.37 316.18 2.71 313.19 2.05 310.82 0.88L310.82 0.88 310.82 2.64 304.01 2.64 304.01 1.71ZM346.15 0L346.15-3.91 352.74-3.91 352.74-26.49 346.15-26.49 346.15-30.4 364.82-30.4 364.82-26.49 358.28-26.49 358.28-16.87 380.08-16.87 380.08-26.49 373.54-26.49 373.54-30.4 392.22-30.4 392.22-26.49 385.62-26.49 385.62-3.91 392.22-3.91 392.22 0 373.54 0 373.54-3.91 380.08-3.91 380.08-13.82 358.28-13.82 358.28-3.91 364.82-3.91 364.82 0 346.15 0ZM387.38-5.37L387.38-24.78 393.95-24.78 393.95-29.15 394.93-29.15 394.93-23.85 388.36-23.85 388.36-5.37 387.38-5.37ZM360.04-18.33L360.04-24.78 366.56-24.78 366.56-29.15 367.53-29.15 367.53-23.85 361.02-23.85 361.02-18.33 360.04-18.33ZM375-23.85L375-24.78 379.06-24.78 379.06-23.85 375-23.85ZM347.61-23.85L347.61-24.78 351.71-23.85 351.71-23.85 347.61-23.85ZM360.04-5.37L360.04-12.11 379.11-12.11 379.11-11.18 361.02-11.18 361.02-5.37 360.04-5.37ZM375 1.71L393.97 1.71 393.97-2.54 394.9-2.54 394.9 2.64 375 2.64 375 1.71ZM347.61 1.71L366.58 1.71 366.58-2.54 367.56-2.54 367.56 2.64 347.61 2.64 347.61 1.71ZM401.27 0L401.27-3.91 408.11-3.91 408.11-26.49 401.52-26.49 401.52-30.4 420.44-30.4 420.44-26.49 413.65-26.49 413.65-3.91 420.19-3.91 420.19 0 401.27 0ZM415.41-5.37L415.41-24.78 422.17-24.78 422.17-29.17 423.15-29.17 423.15-23.85 416.38-23.85 416.38-5.37 415.41-5.37ZM402.98-23.85L402.98-24.78 407.08-24.78 407.08-23.85 402.98-23.85ZM402.74 1.71L421.95 1.71 421.95-2.54 422.93-2.54 422.93 2.64 402.74 2.64 402.74 1.71ZM429.76 0L429.76-3.91 436.13-3.91 436.13-26.49 429.39-26.49 429.39-30.4 448.66-30.4Q451.46-30.4 453.72-30.3 455.98-30.2 457.81-29.86L457.81-29.86Q459.96-29.44 461.47-28.67 462.99-27.91 463.93-26.81 464.87-25.71 465.29-24.32 465.72-22.92 465.72-21.26L465.72-21.26Q465.72-19.9 465.25-18.58 464.77-17.26 463.84-16.1 462.91-14.94 461.51-14.01 460.11-13.09 458.25-12.5L458.25-12.5Q456.27-11.91 453.87-11.76 451.46-11.6 448.66-11.6L448.66-11.6 441.67-11.6 441.67-3.91 450.37-3.91 450.37 0 429.76 0ZM443.38-5.37L443.38-9.89 447.29-9.89Q449.44-9.89 451-9.91 452.56-9.94 453.8-10.02 455.03-10.11 456.02-10.27 457.01-10.42 458.01-10.67L458.01-10.67Q460.25-11.21 462.01-12.19 463.77-13.18 464.98-14.56 466.19-15.94 466.82-17.69 467.46-19.43 467.46-21.48L467.46-21.48Q467.46-24 466.49-25.82 465.53-27.64 463.48-29.1L463.48-29.1Q464.72-28.56 465.67-27.72 466.63-26.88 467.26-25.85 467.89-24.83 468.21-23.71 468.53-22.58 468.53-21.48L468.53-21.48Q468.53-19.31 467.82-17.41 467.11-15.5 465.76-13.96 464.4-12.43 462.41-11.32 460.42-10.21 457.84-9.64L457.84-9.64Q457.06-9.47 456.08-9.34 455.1-9.2 453.83-9.12 452.56-9.03 450.95-9 449.34-8.96 447.29-8.96L447.29-8.96 444.36-8.96 444.36-5.37 443.38-5.37ZM441.67-15.5L449.71-15.5Q451.78-15.5 453.32-15.6 454.86-15.7 456.03-16.04L456.03-16.04Q458.13-16.63 458.95-17.9 459.77-19.17 459.77-21.07L459.77-21.07Q459.77-22.53 459.23-23.56 458.69-24.58 457.49-25.24 456.3-25.9 454.38-26.2 452.47-26.49 449.71-26.49L449.71-26.49 441.67-26.49 441.67-15.5ZM443.38-16.97L443.38-24.78 449.54-24.78Q453.27-24.78 455.24-24.37 457.2-23.95 457.81-22.92L457.81-22.92Q457.32-23.14 456.65-23.32 455.98-23.49 455-23.61 454.03-23.73 452.7-23.79 451.37-23.85 449.54-23.85L449.54-23.85 444.36-23.85 444.36-16.97 443.38-16.97ZM430.71-23.85L430.71-24.78 434.59-24.78 434.59-23.85 430.71-23.85ZM431.32 1.71L452.12 1.71 452.12-2.54 453.1-2.54 453.1 2.64 431.32 2.64 431.32 1.71Z" fill="#001f3f" data-fill-palette-color="primary"></path></g></svg></g></svg></g></svg></g></svg></g><g transform="matrix(1,0,0,1,75.27970909187194,0)"><svg viewBox="0 0 246.93818181625605 61.15277599831687" height="61.15277599831687" width="246.93818181625605"><g><svg xmlns="http://www.w3.org/2000/svg" xmlns:xlink="http://www.w3.org/1999/xlink" version="1.1" x="0" y="0" viewBox="0 0 83.7249984741211 20.733999252319336" enable-background="new 0 0 83.725 20.735" xml:space="preserve" width="246.93818181625605" height="61.15277599831687" class="icon-icon-0" data-fill-palette-color="accent" id="icon-0"><path d="M79.616 9.347l2.805-3.525H57.486l-6.481-3.315h-6.406L39.768 0l-25.87 1.785-1.295 1.541 11.121 1.844L20.281 9.44H7.667l-4.446 5.647H0v2.275l6.593 3.372h61.075c3.573 0 6.381-1.155 8.37-3.617 1.959-2.427 4.923-6.11 4.923-6.11h1.336l1.428-1.661H79.616zM37.188 9.44c-2.54 0-13.769 0-13.769 0l3.082-3.804c0 0 8.527 1.379 10.897 1.774C38.939 7.667 38.729 9.44 37.188 9.44zM74.713 7.223l-1.685 2.124h-3.114l1.684-2.124H74.713zM64.903 7.223L63.542 8.92l-3.317-1.697H64.903zM49.85 7.661c0 0-5.122-0.811-8.728-1.441-1.642-0.287-1.75-2.011-0.012-2.011h4.19l6.729 3.452H49.85zM54.541 7.62L47.89 4.209h3.063l6.61 3.411H54.541zM64.994 9.347l1.702-2.124h3.116l-1.685 2.124H64.994zM74.814 9.347l1.685-2.124h3.018l-1.689 2.124H74.814z" fill="#111111" data-fill-palette-color="accent"></path></svg></g></svg></g><g></g></svg></g><defs></defs></svg><rect width="395.52" height="106.70751720662395" fill="none" stroke="none" visibility="hidden"></rect></g></svg></g></svg>